<?xml version="1.0" encoding="UTF-8"?>
<svg width="1920" height="1080" version="1.1" viewBox="0 0 508 285.75" xmlns="http://www.w3.org/2000/svg" xmlns:cc="http://creativecommons.org/ns#" xmlns:rdf="http://www.w3.org/1999/02/22-rdf-syntax-ns#">
 <metadata>
  <rdf:RDF>
   <cc:Work rdf:about=""/>
  </rdf:RDF>
 </metadata>
 <g>
  <g>
   <rect width="508" height="285.75"/>
  </g>
  <g stroke-width=".26458">
   <g fill="#1f1f1f">
    <rect x="-11.642" y="5.2917" width="21.167" height="21.167"/>
    <rect x="20.108" y="5.2917" width="21.167" height="21.167"/>
    <rect x="51.858" y="5.2917" width="21.167" height="21.167"/>
    <rect x="83.608" y="5.2917" width="21.167" height="21.167"/>
    <rect x="115.36" y="5.2917" width="21.167" height="21.167"/>
    <rect x="147.11" y="5.2917" width="21.167" height="21.167"/>
    <rect x="178.86" y="5.2917" width="21.167" height="21.167"/>
    <rect x="210.61" y="5.2917" width="21.167" height="21.167"/>
    <rect x="242.36" y="5.2917" width="21.167" height="21.167"/>
    <rect x="274.11" y="5.2917" width="21.167" height="21.167"/>
    <rect x="305.86" y="5.2917" width="21.167" height="21.167"/>
    <rect x="337.61" y="5.2917" width="21.167" height="21.167"/>
    <rect x="369.36" y="5.2917" width="21.167" height="21.167"/>
    <rect x="401.11" y="5.2917" width="21.167" height="21.167"/>
    <rect x="432.86" y="5.2917" width="21.167" height="21.167"/>
    <rect x="464.61" y="5.2917" width="21.167" height="21.167"/>
    <rect x="9.525" y="37.042" width="21.167" height="21.167"/>
    <rect x="41.275" y="37.042" width="21.167" height="21.167"/>
    <rect x="73.025" y="37.042" width="21.167" height="21.167"/>
    <rect x="104.78" y="37.042" width="21.167" height="21.167"/>
    <rect x="136.53" y="37.042" width="21.167" height="21.167"/>
    <rect x="168.28" y="37.042" width="21.167" height="21.167"/>
    <rect x="200.02" y="37.042" width="21.167" height="21.167"/>
    <rect x="231.78" y="37.042" width="21.167" height="21.167"/>
    <rect x="263.52" y="37.042" width="21.167" height="21.167"/>
    <rect x="295.27" y="37.042" width="21.167" height="21.167"/>
    <rect x="327.02" y="37.042" width="21.167" height="21.167"/>
    <rect x="358.78" y="37.042" width="21.167" height="21.167"/>
    <rect x="390.52" y="37.042" width="21.167" height="21.167"/>
    <rect x="422.27" y="37.042" width="21.167" height="21.167"/>
    <rect x="454.02" y="37.042" width="21.167" height="21.167"/>
    <rect x="485.78" y="37.042" width="21.167" height="21.167"/>
    <rect x="-1.0583" y="68.792" width="21.167" height="21.167"/>
    <rect x="30.692" y="68.792" width="21.167" height="21.167"/>
    <rect x="62.442" y="68.792" width="21.167" height="21.167"/>
    <rect x="94.192" y="68.792" width="21.167" height="21.167"/>
    <rect x="125.94" y="68.792" width="21.167" height="21.167"/>
    <rect x="157.69" y="68.792" width="21.167" height="21.167"/>
    <rect x="189.44" y="68.792" width="21.167" height="21.167"/>
    <rect x="221.19" y="68.792" width="21.167" height="21.167"/>
    <rect x="252.94" y="68.792" width="21.167" height="21.167"/>
    <rect x="284.69" y="68.792" width="21.167" height="21.167"/>
    <rect x="316.44" y="68.792" width="21.167" height="21.167"/>
    <rect x="348.19" y="68.792" width="21.167" height="21.167"/>
    <rect x="379.94" y="68.792" width="21.167" height="21.167"/>
    <rect x="411.69" y="68.792" width="21.167" height="21.167"/>
    <rect x="443.44" y="68.792" width="21.167" height="21.167"/>
    <rect x="475.19" y="68.792" width="21.167" height="21.167"/>
    <rect x="3.175" y="100.54" width="21.167" height="21.167"/>
    <rect x="34.925" y="100.54" width="21.167" height="21.167"/>
    <rect x="66.675" y="100.54" width="21.167" height="21.167"/>
    <rect x="98.425" y="100.54" width="21.167" height="21.167"/>
    <rect x="130.18" y="100.54" width="21.167" height="21.167"/>
    <rect x="161.92" y="100.54" width="21.167" height="21.167"/>
    <rect x="193.67" y="100.54" width="21.167" height="21.167"/>
    <rect x="225.42" y="100.54" width="21.167" height="21.167"/>
    <rect x="257.17" y="100.54" width="21.167" height="21.167"/>
    <rect x="288.92" y="100.54" width="21.167" height="21.167"/>
    <rect x="320.67" y="100.54" width="21.167" height="21.167"/>
    <rect x="352.43" y="100.54" width="21.167" height="21.167"/>
    <rect x="384.17" y="100.54" width="21.167" height="21.167"/>
    <rect x="415.92" y="100.54" width="21.167" height="21.167"/>
    <rect x="447.67" y="100.54" width="21.167" height="21.167"/>
    <rect x="479.43" y="100.54" width="21.167" height="21.167"/>
    <rect x="-5.2917" y="132.29" width="21.167" height="21.167"/>
    <rect x="26.458" y="132.29" width="21.167" height="21.167"/>
    <rect x="58.208" y="132.29" width="21.167" height="21.167"/>
    <rect x="89.958" y="132.29" width="21.167" height="21.167"/>
    <rect x="121.71" y="132.29" width="21.167" height="21.167"/>
    <rect x="153.46" y="132.29" width="21.167" height="21.167"/>
    <rect x="185.21" y="132.29" width="21.167" height="21.167"/>
    <rect x="216.96" y="132.29" width="21.167" height="21.167"/>
    <rect x="248.71" y="132.29" width="21.167" height="21.167"/>
    <rect x="280.46" y="132.29" width="21.167" height="21.167"/>
    <rect x="312.21" y="132.29" width="21.167" height="21.167"/>
    <rect x="343.96" y="132.29" width="21.167" height="21.167"/>
    <rect x="375.71" y="132.29" width="21.167" height="21.167"/>
    <rect x="407.46" y="132.29" width="21.167" height="21.167"/>
    <rect x="439.21" y="132.29" width="21.167" height="21.167"/>
    <rect x="470.96" y="132.29" width="21.167" height="21.167"/>
    <rect x="8.4667" y="164.04" width="21.167" height="21.167"/>
    <rect x="40.217" y="164.04" width="21.167" height="21.167"/>
    <rect x="71.967" y="164.04" width="21.167" height="21.167"/>
    <rect x="103.72" y="164.04" width="21.167" height="21.167"/>
    <rect x="135.47" y="164.04" width="21.167" height="21.167"/>
    <rect x="167.22" y="164.04" width="21.167" height="21.167"/>
    <rect x="198.97" y="164.04" width="21.167" height="21.167"/>
    <rect x="230.72" y="164.04" width="21.167" height="21.167"/>
    <rect x="262.47" y="164.04" width="21.167" height="21.167"/>
    <rect x="294.22" y="164.04" width="21.167" height="21.167"/>
    <rect x="325.97" y="164.04" width="21.167" height="21.167"/>
    <rect x="357.72" y="164.04" width="21.167" height="21.167"/>
    <rect x="389.47" y="164.04" width="21.167" height="21.167"/>
    <rect x="421.22" y="164.04" width="21.167" height="21.167"/>
    <rect x="452.97" y="164.04" width="21.167" height="21.167"/>
    <rect x="484.72" y="164.04" width="21.167" height="21.167"/>
    <rect x="17.992" y="195.79" width="21.167" height="21.167"/>
    <rect x="49.742" y="195.79" width="21.167" height="21.167"/>
    <rect x="81.492" y="195.79" width="21.167" height="21.167"/>
    <rect x="113.24" y="195.79" width="21.167" height="21.167"/>
    <rect x="144.99" y="195.79" width="21.167" height="21.167"/>
    <rect x="176.74" y="195.79" width="21.167" height="21.167"/>
    <rect x="208.49" y="195.79" width="21.167" height="21.167"/>
    <rect x="240.24" y="195.79" width="21.167" height="21.167"/>
    <rect x="271.99" y="195.79" width="21.167" height="21.167"/>
    <rect x="303.74" y="195.79" width="21.167" height="21.167"/>
    <rect x="335.49" y="195.79" width="21.167" height="21.167"/>
    <rect x="367.24" y="195.79" width="21.167" height="21.167"/>
    <rect x="398.99" y="195.79" width="21.167" height="21.167"/>
    <rect x="430.74" y="195.79" width="21.167" height="21.167"/>
    <rect x="462.49" y="195.79" width="21.167" height="21.167"/>
    <rect x="494.24" y="195.79" width="21.167" height="21.167"/>
    <rect x="2.1167" y="227.54" width="21.167" height="21.167"/>
    <rect x="33.867" y="227.54" width="21.167" height="21.167"/>
    <rect x="65.617" y="227.54" width="21.167" height="21.167"/>
    <rect x="97.367" y="227.54" width="21.167" height="21.167"/>
    <rect x="129.12" y="227.54" width="21.167" height="21.167"/>
    <rect x="160.87" y="227.54" width="21.167" height="21.167"/>
    <rect x="192.62" y="227.54" width="21.167" height="21.167"/>
    <rect x="224.37" y="227.54" width="21.167" height="21.167"/>
    <rect x="256.12" y="227.54" width="21.167" height="21.167"/>
    <rect x="287.87" y="227.54" width="21.167" height="21.167"/>
    <rect x="319.62" y="227.54" width="21.167" height="21.167"/>
    <rect x="351.37" y="227.54" width="21.167" height="21.167"/>
    <rect x="383.12" y="227.54" width="21.167" height="21.167"/>
    <rect x="414.87" y="227.54" width="21.167" height="21.167"/>
    <rect x="446.62" y="227.54" width="21.167" height="21.167"/>
    <rect x="478.37" y="227.54" width="21.167" height="21.167"/>
    <rect x="-7.4083" y="259.29" width="21.167" height="21.167"/>
    <rect x="24.342" y="259.29" width="21.167" height="21.167"/>
    <rect x="56.092" y="259.29" width="21.167" height="21.167"/>
    <rect x="87.842" y="259.29" width="21.167" height="21.167"/>
    <rect x="119.59" y="259.29" width="21.167" height="21.167"/>
    <rect x="151.34" y="259.29" width="21.167" height="21.167"/>
    <rect x="183.09" y="259.29" width="21.167" height="21.167"/>
    <rect x="214.84" y="259.29" width="21.167" height="21.167"/>
    <rect x="246.59" y="259.29" width="21.167" height="21.167"/>
    <rect x="278.34" y="259.29" width="21.167" height="21.167"/>
    <rect x="310.09" y="259.29" width="21.167" height="21.167"/>
    <rect x="341.84" y="259.29" width="21.167" height="21.167"/>
    <rect x="373.59" y="259.29" width="21.167" height="21.167"/>
    <rect x="405.34" y="259.29" width="21.167" height="21.167"/>
    <rect x="437.09" y="259.29" width="21.167" height="21.167"/>
    <rect x="468.84" y="259.29" width="21.167" height="21.167"/>
    <rect x="496.36" y="5.2917" width="21.167" height="21.167"/>
    <rect x="517.53" y="37.042" width="21.167" height="21.167"/>
    <rect x="506.94" y="68.792" width="21.167" height="21.167"/>
    <rect x="511.18" y="100.54" width="21.167" height="21.167"/>
    <rect x="502.71" y="132.29" width="21.167" height="21.167"/>
    <rect x="516.47" y="164.04" width="21.167" height="21.167"/>
    <rect x="525.99" y="195.79" width="21.167" height="21.167"/>
    <rect x="510.12" y="227.54" width="21.167" height="21.167"/>
    <rect x="500.59" y="259.29" width="21.167" height="21.167"/>
    <rect x="-43.392" y="5.2917" width="21.167" height="21.167"/>
    <rect x="-22.225" y="37.042" width="21.167" height="21.167"/>
    <rect x="-32.808" y="68.792" width="21.167" height="21.167"/>
    <rect x="-28.575" y="100.54" width="21.167" height="21.167"/>
    <rect x="-37.042" y="132.29" width="21.167" height="21.167"/>
    <rect x="-23.283" y="164.04" width="21.167" height="21.167"/>
    <rect x="-13.758" y="195.79" width="21.167" height="21.167"/>
    <rect x="-29.633" y="227.54" width="21.167" height="21.167"/>
    <rect x="-39.158" y="259.29" width="21.167" height="21.167"/>
   </g>
   <g fill="#ff7f00">
    <path d="m185.21 132.29v21.167h21.167v-21.167zm1.0583 1.0583h19.05v19.05h-19.05z" fill-opacity=".75"/>
    <path d="m104.78 37.042v21.167h21.167v-21.167zm1.0583 1.0583h19.05v19.05h-19.05z" fill-opacity=".25"/>
    <path d="m341.84 259.29v21.167h21.167v-21.167zm1.0583 1.0583h19.05v19.05h-19.05z" fill-opacity=".5"/>
    <path d="m357.72 164.04v21.167h21.167v-21.167zm1.0583 1.0583h19.05v19.05h-19.05z" fill-opacity=".25"/>
    <path d="m81.492 195.79v21.167h21.167v-21.167zm1.0583 1.0583h19.05v19.05h-19.05z" fill-opacity=".5"/>
    <rect x="288.93" y="100.54" width="21.167" height="21.167" fill-opacity=".5"/>
    <rect x="8.4667" y="164.04" width="21.167" height="21.167" fill-opacity=".25"/>
    <rect x="462.49" y="195.79" width="21.167" height="21.167" fill-opacity=".75"/>
    <rect x="473.07" y="68.792" width="21.167" height="21.167" fill-opacity=".25"/>
    <path d="m390.52 37.042v21.167h21.167v-21.167zm1.0583 1.0583h19.05v19.05h-19.05z" fill-opacity=".75"/>
    <rect x="51.858" y="5.2917" width="21.167" height="21.167" fill-opacity=".5"/>
    <rect x="160.87" y="227.54" width="21.167" height="21.167" fill-opacity=".75"/>
   </g>
  </g>
 </g>
 <g display="none">
  <g display="inline">
   <g fill="#ff7f00">
    <rect transform="rotate(-14.685)" x="188.35" y="181.31" width="42.333" height="42.333" display="inline" fill-rule="evenodd"/>
    <g>
     <rect transform="rotate(-14.685)" x="188.35" y="181.31" width="42.333" height="42.333" display="inline" fill-rule="evenodd" stroke="#000" stroke-linecap="square" stroke-width="1.5875"/>
     <text transform="rotate(-14.685)" x="230.16689" y="230.69145" display="inline" font-family="'Museo Sans'" font-size="3.175px" letter-spacing="0px" stroke="#000000" stroke-width="1.5875" word-spacing="0px" style="line-height:0%" xml:space="preserve"><tspan x="230.68547" y="230.69145" font-family="'Museo Sans'" font-size="6.6146px" letter-spacing=".51858px" stroke="#000000" stroke-width="1.5875" text-align="end" text-anchor="end" style="line-height:125%">Shift</tspan></text>
     <text transform="rotate(-14.685)" x="230.16689" y="230.69145" display="inline" font-family="'Museo Sans'" font-size="3.175px" letter-spacing="0px" stroke="#ff7f00" stroke-width="0" word-spacing="0px" style="line-height:0%" xml:space="preserve"><tspan x="230.68547" y="230.69145" font-family="'Museo Sans'" font-size="6.6146px" letter-spacing=".51858px" stroke="#ff7f00" stroke-width="0" text-align="end" text-anchor="end" style="line-height:125%">Shift</tspan></text>
    </g>
   </g>
   <text transform="rotate(-14.685)" x="192.06721" y="192.78604" display="inline" fill="#000000" font-family="'Museo Sans'" font-size="10.583px" letter-spacing="2.921px" stroke-width="0" word-spacing="0px" style="line-height:0%" xml:space="preserve"><tspan x="192.06721" y="192.78604" style="line-height:1.25">Ben</tspan><tspan x="192.06721" y="206.01517" style="line-height:1.25">Pig</tspan><tspan x="192.06721" y="219.24429" style="line-height:1.25">Chu</tspan></text>
  </g>
 </g>
</svg>
