<svg width="1920" height="1440" version="1.1" viewBox="0 0 508 381" xmlns="http://www.w3.org/2000/svg">
 <g>
  <g>
   <rect width="508" height="381"/>
  </g>
  <g stroke-miterlimit="10" stroke-width="0">
   <rect x="9.525" y="9.525" width="44.45" height="44.45" fill="#0f0f0f" stop-color="#000000"/>
   <rect y="28.575" width="63.5" height="6.35" fill="#1f1f1f" stop-color="#000000"/>
   <rect x="28.575" width="6.35" height="63.5" fill="#1f1f1f" stop-color="#000000"/>
   <path d="m4.7625 4.7625v53.975h53.975v-53.975zm26.988 4.7625a22.225 22.225 0 0 1 22.225 22.225 22.225 22.225 0 0 1-22.225 22.225 22.225 22.225 0 0 1-22.225-22.225 22.225 22.225 0 0 1 22.225-22.225z" fill="#2f2f2f" stop-color="#000000"/>
   <g transform="translate(63.5)">
    <rect x="9.525" y="9.525" width="44.45" height="44.45" fill="#0f0f0f" stop-color="#000000"/>
    <rect y="28.575" width="63.5" height="6.35" fill="#1f1f1f" stop-color="#000000"/>
    <rect x="28.575" width="6.35" height="63.5" fill="#1f1f1f" stop-color="#000000"/>
    <path d="m4.7625 4.7625v53.975h53.975v-53.975zm26.988 4.7625a22.225 22.225 0 0 1 22.225 22.225 22.225 22.225 0 0 1-22.225 22.225 22.225 22.225 0 0 1-22.225-22.225 22.225 22.225 0 0 1 22.225-22.225z" fill="#2f2f2f" stop-color="#000000"/>
   </g>
   <g transform="translate(0,63.5)">
    <rect x="9.525" y="9.525" width="44.45" height="44.45" fill="#0f0f0f" stop-color="#000000"/>
    <rect y="28.575" width="63.5" height="6.35" fill="#1f1f1f" stop-color="#000000"/>
    <rect x="28.575" width="6.35" height="63.5" fill="#1f1f1f" stop-color="#000000"/>
    <path d="m4.7625 4.7625v53.975h53.975v-53.975zm26.988 4.7625a22.225 22.225 0 0 1 22.225 22.225 22.225 22.225 0 0 1-22.225 22.225 22.225 22.225 0 0 1-22.225-22.225 22.225 22.225 0 0 1 22.225-22.225z" fill="#2f2f2f" stop-color="#000000"/>
   </g>
   <g transform="translate(63.5,63.5)">
    <rect x="9.525" y="9.525" width="44.45" height="44.45" fill="#0f0f0f" stop-color="#000000"/>
    <rect y="28.575" width="63.5" height="6.35" fill="#1f1f1f" stop-color="#000000"/>
    <rect x="28.575" width="6.35" height="63.5" fill="#1f1f1f" stop-color="#000000"/>
    <path d="m4.7625 4.7625v53.975h53.975v-53.975zm26.988 4.7625a22.225 22.225 0 0 1 22.225 22.225 22.225 22.225 0 0 1-22.225 22.225 22.225 22.225 0 0 1-22.225-22.225 22.225 22.225 0 0 1 22.225-22.225z" fill="#2f2f2f" stop-color="#000000"/>
   </g>
   <g transform="translate(127)">
    <rect x="9.525" y="9.525" width="44.45" height="44.45" fill="#0f0f0f" stop-color="#000000"/>
    <rect y="28.575" width="63.5" height="6.35" fill="#1f1f1f" stop-color="#000000"/>
    <rect x="28.575" width="6.35" height="63.5" fill="#1f1f1f" stop-color="#000000"/>
    <path d="m4.7625 4.7625v53.975h53.975v-53.975zm26.988 4.7625a22.225 22.225 0 0 1 22.225 22.225 22.225 22.225 0 0 1-22.225 22.225 22.225 22.225 0 0 1-22.225-22.225 22.225 22.225 0 0 1 22.225-22.225z" fill="#2f2f2f" stop-color="#000000"/>
   </g>
   <g transform="translate(190.5)">
    <rect x="9.525" y="9.525" width="44.45" height="44.45" fill="#0f0f0f" stop-color="#000000"/>
    <rect y="28.575" width="63.5" height="6.35" fill="#1f1f1f" stop-color="#000000"/>
    <rect x="28.575" width="6.35" height="63.5" fill="#1f1f1f" stop-color="#000000"/>
    <path d="m4.7625 4.7625v53.975h53.975v-53.975zm26.988 4.7625a22.225 22.225 0 0 1 22.225 22.225 22.225 22.225 0 0 1-22.225 22.225 22.225 22.225 0 0 1-22.225-22.225 22.225 22.225 0 0 1 22.225-22.225z" fill="#2f2f2f" stop-color="#000000"/>
   </g>
   <g transform="translate(127,63.5)">
    <rect x="9.525" y="9.525" width="44.45" height="44.45" fill="#0f0f0f" stop-color="#000000"/>
    <rect y="28.575" width="63.5" height="6.35" fill="#1f1f1f" stop-color="#000000"/>
    <rect x="28.575" width="6.35" height="63.5" fill="#1f1f1f" stop-color="#000000"/>
    <path d="m4.7625 4.7625v53.975h53.975v-53.975zm26.988 4.7625a22.225 22.225 0 0 1 22.225 22.225 22.225 22.225 0 0 1-22.225 22.225 22.225 22.225 0 0 1-22.225-22.225 22.225 22.225 0 0 1 22.225-22.225z" fill="#2f2f2f" stop-color="#000000"/>
   </g>
   <g transform="translate(190.5,63.5)">
    <rect x="9.525" y="9.525" width="44.45" height="44.45" fill="#0f0f0f" stop-color="#000000"/>
    <rect y="28.575" width="63.5" height="6.35" fill="#1f1f1f" stop-color="#000000"/>
    <rect x="28.575" width="6.35" height="63.5" fill="#1f1f1f" stop-color="#000000"/>
    <path d="m4.7625 4.7625v53.975h53.975v-53.975zm26.988 4.7625a22.225 22.225 0 0 1 22.225 22.225 22.225 22.225 0 0 1-22.225 22.225 22.225 22.225 0 0 1-22.225-22.225 22.225 22.225 0 0 1 22.225-22.225z" fill="#2f2f2f" stop-color="#000000"/>
   </g>
   <g transform="translate(254)">
    <rect x="9.525" y="9.525" width="44.45" height="44.45" fill="#0f0f0f" stop-color="#000000"/>
    <rect y="28.575" width="63.5" height="6.35" fill="#1f1f1f" stop-color="#000000"/>
    <rect x="28.575" width="6.35" height="63.5" fill="#1f1f1f" stop-color="#000000"/>
    <path d="m4.7625 4.7625v53.975h53.975v-53.975zm26.988 4.7625a22.225 22.225 0 0 1 22.225 22.225 22.225 22.225 0 0 1-22.225 22.225 22.225 22.225 0 0 1-22.225-22.225 22.225 22.225 0 0 1 22.225-22.225z" fill="#2f2f2f" stop-color="#000000"/>
   </g>
   <g transform="translate(317.5)">
    <rect x="9.525" y="9.525" width="44.45" height="44.45" fill="#0f0f0f" stop-color="#000000"/>
    <rect y="28.575" width="63.5" height="6.35" fill="#1f1f1f" stop-color="#000000"/>
    <rect x="28.575" width="6.35" height="63.5" fill="#1f1f1f" stop-color="#000000"/>
    <path d="m4.7625 4.7625v53.975h53.975v-53.975zm26.988 4.7625a22.225 22.225 0 0 1 22.225 22.225 22.225 22.225 0 0 1-22.225 22.225 22.225 22.225 0 0 1-22.225-22.225 22.225 22.225 0 0 1 22.225-22.225z" fill="#2f2f2f" stop-color="#000000"/>
   </g>
   <g transform="translate(254,63.5)">
    <rect x="9.525" y="9.525" width="44.45" height="44.45" fill="#0f0f0f" stop-color="#000000"/>
    <rect y="28.575" width="63.5" height="6.35" fill="#1f1f1f" stop-color="#000000"/>
    <rect x="28.575" width="6.35" height="63.5" fill="#1f1f1f" stop-color="#000000"/>
    <path d="m4.7625 4.7625v53.975h53.975v-53.975zm26.988 4.7625a22.225 22.225 0 0 1 22.225 22.225 22.225 22.225 0 0 1-22.225 22.225 22.225 22.225 0 0 1-22.225-22.225 22.225 22.225 0 0 1 22.225-22.225z" fill="#2f2f2f" stop-color="#000000"/>
   </g>
   <g transform="translate(317.5,63.5)">
    <rect x="9.525" y="9.525" width="44.45" height="44.45" fill="#0f0f0f" stop-color="#000000"/>
    <rect y="28.575" width="63.5" height="6.35" fill="#1f1f1f" stop-color="#000000"/>
    <rect x="28.575" width="6.35" height="63.5" fill="#1f1f1f" stop-color="#000000"/>
    <path d="m4.7625 4.7625v53.975h53.975v-53.975zm26.988 4.7625a22.225 22.225 0 0 1 22.225 22.225 22.225 22.225 0 0 1-22.225 22.225 22.225 22.225 0 0 1-22.225-22.225 22.225 22.225 0 0 1 22.225-22.225z" fill="#2f2f2f" stop-color="#000000"/>
   </g>
   <g transform="translate(381)">
    <rect x="9.525" y="9.525" width="44.45" height="44.45" fill="#0f0f0f" stop-color="#000000"/>
    <rect y="28.575" width="63.5" height="6.35" fill="#1f1f1f" stop-color="#000000"/>
    <rect x="28.575" width="6.35" height="63.5" fill="#1f1f1f" stop-color="#000000"/>
    <path d="m4.7625 4.7625v53.975h53.975v-53.975zm26.988 4.7625a22.225 22.225 0 0 1 22.225 22.225 22.225 22.225 0 0 1-22.225 22.225 22.225 22.225 0 0 1-22.225-22.225 22.225 22.225 0 0 1 22.225-22.225z" fill="#2f2f2f" stop-color="#000000"/>
   </g>
   <g transform="translate(444.5)">
    <rect x="9.525" y="9.525" width="44.45" height="44.45" fill="#0f0f0f" stop-color="#000000"/>
    <rect y="28.575" width="63.5" height="6.35" fill="#1f1f1f" stop-color="#000000"/>
    <rect x="28.575" width="6.35" height="63.5" fill="#1f1f1f" stop-color="#000000"/>
    <path d="m4.7625 4.7625v53.975h53.975v-53.975zm26.988 4.7625a22.225 22.225 0 0 1 22.225 22.225 22.225 22.225 0 0 1-22.225 22.225 22.225 22.225 0 0 1-22.225-22.225 22.225 22.225 0 0 1 22.225-22.225z" fill="#2f2f2f" stop-color="#000000"/>
   </g>
   <g transform="translate(381,63.5)">
    <rect x="9.525" y="9.525" width="44.45" height="44.45" fill="#0f0f0f" stop-color="#000000"/>
    <rect y="28.575" width="63.5" height="6.35" fill="#1f1f1f" stop-color="#000000"/>
    <rect x="28.575" width="6.35" height="63.5" fill="#1f1f1f" stop-color="#000000"/>
    <path d="m4.7625 4.7625v53.975h53.975v-53.975zm26.988 4.7625a22.225 22.225 0 0 1 22.225 22.225 22.225 22.225 0 0 1-22.225 22.225 22.225 22.225 0 0 1-22.225-22.225 22.225 22.225 0 0 1 22.225-22.225z" fill="#2f2f2f" stop-color="#000000"/>
   </g>
   <g transform="translate(444.5,63.5)">
    <rect x="9.525" y="9.525" width="44.45" height="44.45" fill="#0f0f0f" stop-color="#000000"/>
    <rect y="28.575" width="63.5" height="6.35" fill="#1f1f1f" stop-color="#000000"/>
    <rect x="28.575" width="6.35" height="63.5" fill="#1f1f1f" stop-color="#000000"/>
    <path d="m4.7625 4.7625v53.975h53.975v-53.975zm26.988 4.7625a22.225 22.225 0 0 1 22.225 22.225 22.225 22.225 0 0 1-22.225 22.225 22.225 22.225 0 0 1-22.225-22.225 22.225 22.225 0 0 1 22.225-22.225z" fill="#2f2f2f" stop-color="#000000"/>
   </g>
   <g transform="translate(0,127)">
    <rect x="9.525" y="9.525" width="44.45" height="44.45" fill="#0f0f0f" stop-color="#000000"/>
    <rect y="28.575" width="63.5" height="6.35" fill="#1f1f1f" stop-color="#000000"/>
    <rect x="28.575" width="6.35" height="63.5" fill="#1f1f1f" stop-color="#000000"/>
    <path d="m4.7625 4.7625v53.975h53.975v-53.975zm26.988 4.7625a22.225 22.225 0 0 1 22.225 22.225 22.225 22.225 0 0 1-22.225 22.225 22.225 22.225 0 0 1-22.225-22.225 22.225 22.225 0 0 1 22.225-22.225z" fill="#2f2f2f" stop-color="#000000"/>
   </g>
   <g transform="translate(63.5,127)">
    <rect x="9.525" y="9.525" width="44.45" height="44.45" fill="#0f0f0f" stop-color="#000000"/>
    <rect y="28.575" width="63.5" height="6.35" fill="#1f1f1f" stop-color="#000000"/>
    <rect x="28.575" width="6.35" height="63.5" fill="#1f1f1f" stop-color="#000000"/>
    <path d="m4.7625 4.7625v53.975h53.975v-53.975zm26.988 4.7625a22.225 22.225 0 0 1 22.225 22.225 22.225 22.225 0 0 1-22.225 22.225 22.225 22.225 0 0 1-22.225-22.225 22.225 22.225 0 0 1 22.225-22.225z" fill="#2f2f2f" stop-color="#000000"/>
   </g>
   <g transform="translate(0,190.5)">
    <rect x="9.525" y="9.525" width="44.45" height="44.45" fill="#0f0f0f" stop-color="#000000"/>
    <rect y="28.575" width="63.5" height="6.35" fill="#1f1f1f" stop-color="#000000"/>
    <rect x="28.575" width="6.35" height="63.5" fill="#1f1f1f" stop-color="#000000"/>
    <path d="m4.7625 4.7625v53.975h53.975v-53.975zm26.988 4.7625a22.225 22.225 0 0 1 22.225 22.225 22.225 22.225 0 0 1-22.225 22.225 22.225 22.225 0 0 1-22.225-22.225 22.225 22.225 0 0 1 22.225-22.225z" fill="#2f2f2f" stop-color="#000000"/>
   </g>
   <g transform="translate(63.5,190.5)">
    <rect x="9.525" y="9.525" width="44.45" height="44.45" fill="#0f0f0f" stop-color="#000000"/>
    <rect y="28.575" width="63.5" height="6.35" fill="#1f1f1f" stop-color="#000000"/>
    <rect x="28.575" width="6.35" height="63.5" fill="#1f1f1f" stop-color="#000000"/>
    <path d="m4.7625 4.7625v53.975h53.975v-53.975zm26.988 4.7625a22.225 22.225 0 0 1 22.225 22.225 22.225 22.225 0 0 1-22.225 22.225 22.225 22.225 0 0 1-22.225-22.225 22.225 22.225 0 0 1 22.225-22.225z" fill="#2f2f2f" stop-color="#000000"/>
   </g>
   <g transform="translate(127,127)">
    <rect x="9.525" y="9.525" width="44.45" height="44.45" fill="#0f0f0f" stop-color="#000000"/>
    <rect y="28.575" width="63.5" height="6.35" fill="#1f1f1f" stop-color="#000000"/>
    <rect x="28.575" width="6.35" height="63.5" fill="#1f1f1f" stop-color="#000000"/>
    <path d="m4.7625 4.7625v53.975h53.975v-53.975zm26.988 4.7625a22.225 22.225 0 0 1 22.225 22.225 22.225 22.225 0 0 1-22.225 22.225 22.225 22.225 0 0 1-22.225-22.225 22.225 22.225 0 0 1 22.225-22.225z" fill="#2f2f2f" stop-color="#000000"/>
   </g>
   <g transform="translate(190.5,127)">
    <rect x="9.525" y="9.525" width="44.45" height="44.45" fill="#0f0f0f" stop-color="#000000"/>
    <rect y="28.575" width="63.5" height="6.35" fill="#1f1f1f" stop-color="#000000"/>
    <rect x="28.575" width="6.35" height="63.5" fill="#1f1f1f" stop-color="#000000"/>
    <path d="m4.7625 4.7625v53.975h53.975v-53.975zm26.988 4.7625a22.225 22.225 0 0 1 22.225 22.225 22.225 22.225 0 0 1-22.225 22.225 22.225 22.225 0 0 1-22.225-22.225 22.225 22.225 0 0 1 22.225-22.225z" fill="#2f2f2f" stop-color="#000000"/>
   </g>
   <g transform="translate(127,190.5)">
    <rect x="9.525" y="9.525" width="44.45" height="44.45" fill="#0f0f0f" stop-color="#000000"/>
    <rect y="28.575" width="63.5" height="6.35" fill="#1f1f1f" stop-color="#000000"/>
    <rect x="28.575" width="6.35" height="63.5" fill="#1f1f1f" stop-color="#000000"/>
    <path d="m4.7625 4.7625v53.975h53.975v-53.975zm26.988 4.7625a22.225 22.225 0 0 1 22.225 22.225 22.225 22.225 0 0 1-22.225 22.225 22.225 22.225 0 0 1-22.225-22.225 22.225 22.225 0 0 1 22.225-22.225z" fill="#2f2f2f" stop-color="#000000"/>
   </g>
   <g transform="translate(190.5,190.5)">
    <rect x="9.525" y="9.525" width="44.45" height="44.45" fill="#0f0f0f" stop-color="#000000"/>
    <rect y="28.575" width="63.5" height="6.35" fill="#1f1f1f" stop-color="#000000"/>
    <rect x="28.575" width="6.35" height="63.5" fill="#1f1f1f" stop-color="#000000"/>
    <path d="m4.7625 4.7625v53.975h53.975v-53.975zm26.988 4.7625a22.225 22.225 0 0 1 22.225 22.225 22.225 22.225 0 0 1-22.225 22.225 22.225 22.225 0 0 1-22.225-22.225 22.225 22.225 0 0 1 22.225-22.225z" fill="#2f2f2f" stop-color="#000000"/>
   </g>
   <g transform="translate(254,127)">
    <rect x="9.525" y="9.525" width="44.45" height="44.45" fill="#0f0f0f" stop-color="#000000"/>
    <rect y="28.575" width="63.5" height="6.35" fill="#1f1f1f" stop-color="#000000"/>
    <rect x="28.575" width="6.35" height="63.5" fill="#1f1f1f" stop-color="#000000"/>
    <path d="m4.7625 4.7625v53.975h53.975v-53.975zm26.988 4.7625a22.225 22.225 0 0 1 22.225 22.225 22.225 22.225 0 0 1-22.225 22.225 22.225 22.225 0 0 1-22.225-22.225 22.225 22.225 0 0 1 22.225-22.225z" fill="#2f2f2f" stop-color="#000000"/>
   </g>
   <g transform="translate(317.5,127)">
    <rect x="9.525" y="9.525" width="44.45" height="44.45" fill="#0f0f0f" stop-color="#000000"/>
    <rect y="28.575" width="63.5" height="6.35" fill="#1f1f1f" stop-color="#000000"/>
    <rect x="28.575" width="6.35" height="63.5" fill="#1f1f1f" stop-color="#000000"/>
    <path d="m4.7625 4.7625v53.975h53.975v-53.975zm26.988 4.7625a22.225 22.225 0 0 1 22.225 22.225 22.225 22.225 0 0 1-22.225 22.225 22.225 22.225 0 0 1-22.225-22.225 22.225 22.225 0 0 1 22.225-22.225z" fill="#2f2f2f" stop-color="#000000"/>
   </g>
   <g transform="translate(254,190.5)">
    <rect x="9.525" y="9.525" width="44.45" height="44.45" fill="#0f0f0f" stop-color="#000000"/>
    <rect y="28.575" width="63.5" height="6.35" fill="#1f1f1f" stop-color="#000000"/>
    <rect x="28.575" width="6.35" height="63.5" fill="#1f1f1f" stop-color="#000000"/>
    <path d="m4.7625 4.7625v53.975h53.975v-53.975zm26.988 4.7625a22.225 22.225 0 0 1 22.225 22.225 22.225 22.225 0 0 1-22.225 22.225 22.225 22.225 0 0 1-22.225-22.225 22.225 22.225 0 0 1 22.225-22.225z" fill="#2f2f2f" stop-color="#000000"/>
   </g>
   <g transform="translate(317.5,190.5)">
    <rect x="9.525" y="9.525" width="44.45" height="44.45" fill="#0f0f0f" stop-color="#000000"/>
    <rect y="28.575" width="63.5" height="6.35" fill="#1f1f1f" stop-color="#000000"/>
    <rect x="28.575" width="6.35" height="63.5" fill="#1f1f1f" stop-color="#000000"/>
    <path d="m4.7625 4.7625v53.975h53.975v-53.975zm26.988 4.7625a22.225 22.225 0 0 1 22.225 22.225 22.225 22.225 0 0 1-22.225 22.225 22.225 22.225 0 0 1-22.225-22.225 22.225 22.225 0 0 1 22.225-22.225z" fill="#2f2f2f" stop-color="#000000"/>
   </g>
   <g transform="translate(381,127)">
    <rect x="9.525" y="9.525" width="44.45" height="44.45" fill="#0f0f0f" stop-color="#000000"/>
    <rect y="28.575" width="63.5" height="6.35" fill="#1f1f1f" stop-color="#000000"/>
    <rect x="28.575" width="6.35" height="63.5" fill="#1f1f1f" stop-color="#000000"/>
    <path d="m4.7625 4.7625v53.975h53.975v-53.975zm26.988 4.7625a22.225 22.225 0 0 1 22.225 22.225 22.225 22.225 0 0 1-22.225 22.225 22.225 22.225 0 0 1-22.225-22.225 22.225 22.225 0 0 1 22.225-22.225z" fill="#2f2f2f" stop-color="#000000"/>
   </g>
   <g transform="translate(444.5,127)">
    <rect x="9.525" y="9.525" width="44.45" height="44.45" fill="#0f0f0f" stop-color="#000000"/>
    <rect y="28.575" width="63.5" height="6.35" fill="#1f1f1f" stop-color="#000000"/>
    <rect x="28.575" width="6.35" height="63.5" fill="#1f1f1f" stop-color="#000000"/>
    <path d="m4.7625 4.7625v53.975h53.975v-53.975zm26.988 4.7625a22.225 22.225 0 0 1 22.225 22.225 22.225 22.225 0 0 1-22.225 22.225 22.225 22.225 0 0 1-22.225-22.225 22.225 22.225 0 0 1 22.225-22.225z" fill="#2f2f2f" stop-color="#000000"/>
   </g>
   <g transform="translate(381,190.5)">
    <rect x="9.525" y="9.525" width="44.45" height="44.45" fill="#0f0f0f" stop-color="#000000"/>
    <rect y="28.575" width="63.5" height="6.35" fill="#1f1f1f" stop-color="#000000"/>
    <rect x="28.575" width="6.35" height="63.5" fill="#1f1f1f" stop-color="#000000"/>
    <path d="m4.7625 4.7625v53.975h53.975v-53.975zm26.988 4.7625a22.225 22.225 0 0 1 22.225 22.225 22.225 22.225 0 0 1-22.225 22.225 22.225 22.225 0 0 1-22.225-22.225 22.225 22.225 0 0 1 22.225-22.225z" fill="#2f2f2f" stop-color="#000000"/>
   </g>
   <g transform="translate(444.5,190.5)">
    <rect x="9.525" y="9.525" width="44.45" height="44.45" fill="#0f0f0f" stop-color="#000000"/>
    <rect y="28.575" width="63.5" height="6.35" fill="#1f1f1f" stop-color="#000000"/>
    <rect x="28.575" width="6.35" height="63.5" fill="#1f1f1f" stop-color="#000000"/>
    <path d="m4.7625 4.7625v53.975h53.975v-53.975zm26.988 4.7625a22.225 22.225 0 0 1 22.225 22.225 22.225 22.225 0 0 1-22.225 22.225 22.225 22.225 0 0 1-22.225-22.225 22.225 22.225 0 0 1 22.225-22.225z" fill="#2f2f2f" stop-color="#000000"/>
   </g>
   <g transform="translate(0,254)">
    <rect x="9.525" y="9.525" width="44.45" height="44.45" fill="#0f0f0f" stop-color="#000000"/>
    <rect y="28.575" width="63.5" height="6.35" fill="#1f1f1f" stop-color="#000000"/>
    <rect x="28.575" width="6.35" height="63.5" fill="#1f1f1f" stop-color="#000000"/>
    <path d="m4.7625 4.7625v53.975h53.975v-53.975zm26.988 4.7625a22.225 22.225 0 0 1 22.225 22.225 22.225 22.225 0 0 1-22.225 22.225 22.225 22.225 0 0 1-22.225-22.225 22.225 22.225 0 0 1 22.225-22.225z" fill="#2f2f2f" stop-color="#000000"/>
   </g>
   <g transform="translate(63.5,254)">
    <rect x="9.525" y="9.525" width="44.45" height="44.45" fill="#0f0f0f" stop-color="#000000"/>
    <rect y="28.575" width="63.5" height="6.35" fill="#1f1f1f" stop-color="#000000"/>
    <rect x="28.575" width="6.35" height="63.5" fill="#1f1f1f" stop-color="#000000"/>
    <path d="m4.7625 4.7625v53.975h53.975v-53.975zm26.988 4.7625a22.225 22.225 0 0 1 22.225 22.225 22.225 22.225 0 0 1-22.225 22.225 22.225 22.225 0 0 1-22.225-22.225 22.225 22.225 0 0 1 22.225-22.225z" fill="#2f2f2f" stop-color="#000000"/>
   </g>
   <g transform="translate(0,317.5)">
    <rect x="9.525" y="9.525" width="44.45" height="44.45" fill="#0f0f0f" stop-color="#000000"/>
    <rect y="28.575" width="63.5" height="6.35" fill="#1f1f1f" stop-color="#000000"/>
    <rect x="28.575" width="6.35" height="63.5" fill="#1f1f1f" stop-color="#000000"/>
    <path d="m4.7625 4.7625v53.975h53.975v-53.975zm26.988 4.7625a22.225 22.225 0 0 1 22.225 22.225 22.225 22.225 0 0 1-22.225 22.225 22.225 22.225 0 0 1-22.225-22.225 22.225 22.225 0 0 1 22.225-22.225z" fill="#2f2f2f" stop-color="#000000"/>
   </g>
   <g transform="translate(63.5,317.5)">
    <rect x="9.525" y="9.525" width="44.45" height="44.45" fill="#0f0f0f" stop-color="#000000"/>
    <rect y="28.575" width="63.5" height="6.35" fill="#1f1f1f" stop-color="#000000"/>
    <rect x="28.575" width="6.35" height="63.5" fill="#1f1f1f" stop-color="#000000"/>
    <path d="m4.7625 4.7625v53.975h53.975v-53.975zm26.988 4.7625a22.225 22.225 0 0 1 22.225 22.225 22.225 22.225 0 0 1-22.225 22.225 22.225 22.225 0 0 1-22.225-22.225 22.225 22.225 0 0 1 22.225-22.225z" fill="#2f2f2f" stop-color="#000000"/>
   </g>
   <g transform="translate(127,254)">
    <rect x="9.525" y="9.525" width="44.45" height="44.45" fill="#0f0f0f" stop-color="#000000"/>
    <rect y="28.575" width="63.5" height="6.35" fill="#1f1f1f" stop-color="#000000"/>
    <rect x="28.575" width="6.35" height="63.5" fill="#1f1f1f" stop-color="#000000"/>
    <path d="m4.7625 4.7625v53.975h53.975v-53.975zm26.988 4.7625a22.225 22.225 0 0 1 22.225 22.225 22.225 22.225 0 0 1-22.225 22.225 22.225 22.225 0 0 1-22.225-22.225 22.225 22.225 0 0 1 22.225-22.225z" fill="#2f2f2f" stop-color="#000000"/>
   </g>
   <g transform="translate(190.5,254)">
    <rect x="9.525" y="9.525" width="44.45" height="44.45" fill="#0f0f0f" stop-color="#000000"/>
    <rect y="28.575" width="63.5" height="6.35" fill="#1f1f1f" stop-color="#000000"/>
    <rect x="28.575" width="6.35" height="63.5" fill="#1f1f1f" stop-color="#000000"/>
    <path d="m4.7625 4.7625v53.975h53.975v-53.975zm26.988 4.7625a22.225 22.225 0 0 1 22.225 22.225 22.225 22.225 0 0 1-22.225 22.225 22.225 22.225 0 0 1-22.225-22.225 22.225 22.225 0 0 1 22.225-22.225z" fill="#2f2f2f" stop-color="#000000"/>
   </g>
   <g transform="translate(127,317.5)">
    <rect x="9.525" y="9.525" width="44.45" height="44.45" fill="#0f0f0f" stop-color="#000000"/>
    <rect y="28.575" width="63.5" height="6.35" fill="#1f1f1f" stop-color="#000000"/>
    <rect x="28.575" width="6.35" height="63.5" fill="#1f1f1f" stop-color="#000000"/>
    <path d="m4.7625 4.7625v53.975h53.975v-53.975zm26.988 4.7625a22.225 22.225 0 0 1 22.225 22.225 22.225 22.225 0 0 1-22.225 22.225 22.225 22.225 0 0 1-22.225-22.225 22.225 22.225 0 0 1 22.225-22.225z" fill="#2f2f2f" stop-color="#000000"/>
   </g>
   <g transform="translate(190.5,317.5)">
    <rect x="9.525" y="9.525" width="44.45" height="44.45" fill="#0f0f0f" stop-color="#000000"/>
    <rect y="28.575" width="63.5" height="6.35" fill="#1f1f1f" stop-color="#000000"/>
    <rect x="28.575" width="6.35" height="63.5" fill="#1f1f1f" stop-color="#000000"/>
    <path d="m4.7625 4.7625v53.975h53.975v-53.975zm26.988 4.7625a22.225 22.225 0 0 1 22.225 22.225 22.225 22.225 0 0 1-22.225 22.225 22.225 22.225 0 0 1-22.225-22.225 22.225 22.225 0 0 1 22.225-22.225z" fill="#2f2f2f" stop-color="#000000"/>
   </g>
   <g transform="translate(254,254)">
    <rect x="9.525" y="9.525" width="44.45" height="44.45" fill="#0f0f0f" stop-color="#000000"/>
    <rect y="28.575" width="63.5" height="6.35" fill="#1f1f1f" stop-color="#000000"/>
    <rect x="28.575" width="6.35" height="63.5" fill="#1f1f1f" stop-color="#000000"/>
    <path d="m4.7625 4.7625v53.975h53.975v-53.975zm26.988 4.7625a22.225 22.225 0 0 1 22.225 22.225 22.225 22.225 0 0 1-22.225 22.225 22.225 22.225 0 0 1-22.225-22.225 22.225 22.225 0 0 1 22.225-22.225z" fill="#2f2f2f" stop-color="#000000"/>
   </g>
   <g transform="translate(317.5,254)">
    <rect x="9.525" y="9.525" width="44.45" height="44.45" fill="#0f0f0f" stop-color="#000000"/>
    <rect y="28.575" width="63.5" height="6.35" fill="#1f1f1f" stop-color="#000000"/>
    <rect x="28.575" width="6.35" height="63.5" fill="#1f1f1f" stop-color="#000000"/>
    <path d="m4.7625 4.7625v53.975h53.975v-53.975zm26.988 4.7625a22.225 22.225 0 0 1 22.225 22.225 22.225 22.225 0 0 1-22.225 22.225 22.225 22.225 0 0 1-22.225-22.225 22.225 22.225 0 0 1 22.225-22.225z" fill="#2f2f2f" stop-color="#000000"/>
   </g>
   <g transform="translate(254,317.5)">
    <rect x="9.525" y="9.525" width="44.45" height="44.45" fill="#0f0f0f" stop-color="#000000"/>
    <rect y="28.575" width="63.5" height="6.35" fill="#1f1f1f" stop-color="#000000"/>
    <rect x="28.575" width="6.35" height="63.5" fill="#1f1f1f" stop-color="#000000"/>
    <path d="m4.7625 4.7625v53.975h53.975v-53.975zm26.988 4.7625a22.225 22.225 0 0 1 22.225 22.225 22.225 22.225 0 0 1-22.225 22.225 22.225 22.225 0 0 1-22.225-22.225 22.225 22.225 0 0 1 22.225-22.225z" fill="#2f2f2f" stop-color="#000000"/>
   </g>
   <g transform="translate(317.5,317.5)">
    <rect x="9.525" y="9.525" width="44.45" height="44.45" fill="#0f0f0f" stop-color="#000000"/>
    <rect y="28.575" width="63.5" height="6.35" fill="#1f1f1f" stop-color="#000000"/>
    <rect x="28.575" width="6.35" height="63.5" fill="#1f1f1f" stop-color="#000000"/>
    <path d="m4.7625 4.7625v53.975h53.975v-53.975zm26.988 4.7625a22.225 22.225 0 0 1 22.225 22.225 22.225 22.225 0 0 1-22.225 22.225 22.225 22.225 0 0 1-22.225-22.225 22.225 22.225 0 0 1 22.225-22.225z" fill="#2f2f2f" stop-color="#000000"/>
   </g>
   <g transform="translate(381,254)">
    <rect x="9.525" y="9.525" width="44.45" height="44.45" fill="#0f0f0f" stop-color="#000000"/>
    <rect y="28.575" width="63.5" height="6.35" fill="#1f1f1f" stop-color="#000000"/>
    <rect x="28.575" width="6.35" height="63.5" fill="#1f1f1f" stop-color="#000000"/>
    <path d="m4.7625 4.7625v53.975h53.975v-53.975zm26.988 4.7625a22.225 22.225 0 0 1 22.225 22.225 22.225 22.225 0 0 1-22.225 22.225 22.225 22.225 0 0 1-22.225-22.225 22.225 22.225 0 0 1 22.225-22.225z" fill="#2f2f2f" stop-color="#000000"/>
   </g>
   <g transform="translate(444.5,254)">
    <rect x="9.525" y="9.525" width="44.45" height="44.45" fill="#0f0f0f" stop-color="#000000"/>
    <rect y="28.575" width="63.5" height="6.35" fill="#1f1f1f" stop-color="#000000"/>
    <rect x="28.575" width="6.35" height="63.5" fill="#1f1f1f" stop-color="#000000"/>
    <path d="m4.7625 4.7625v53.975h53.975v-53.975zm26.988 4.7625a22.225 22.225 0 0 1 22.225 22.225 22.225 22.225 0 0 1-22.225 22.225 22.225 22.225 0 0 1-22.225-22.225 22.225 22.225 0 0 1 22.225-22.225z" fill="#2f2f2f" stop-color="#000000"/>
   </g>
   <g transform="translate(381,317.5)">
    <rect x="9.525" y="9.525" width="44.45" height="44.45" fill="#0f0f0f" stop-color="#000000"/>
    <rect y="28.575" width="63.5" height="6.35" fill="#1f1f1f" stop-color="#000000"/>
    <rect x="28.575" width="6.35" height="63.5" fill="#1f1f1f" stop-color="#000000"/>
    <path d="m4.7625 4.7625v53.975h53.975v-53.975zm26.988 4.7625a22.225 22.225 0 0 1 22.225 22.225 22.225 22.225 0 0 1-22.225 22.225 22.225 22.225 0 0 1-22.225-22.225 22.225 22.225 0 0 1 22.225-22.225z" fill="#2f2f2f" stop-color="#000000"/>
   </g>
   <g transform="translate(444.5,317.5)">
    <rect x="9.525" y="9.525" width="44.45" height="44.45" fill="#0f0f0f" stop-color="#000000"/>
    <rect y="28.575" width="63.5" height="6.35" fill="#1f1f1f" stop-color="#000000"/>
    <rect x="28.575" width="6.35" height="63.5" fill="#1f1f1f" stop-color="#000000"/>
    <path d="m4.7625 4.7625v53.975h53.975v-53.975zm26.988 4.7625a22.225 22.225 0 0 1 22.225 22.225 22.225 22.225 0 0 1-22.225 22.225 22.225 22.225 0 0 1-22.225-22.225 22.225 22.225 0 0 1 22.225-22.225z" fill="#2f2f2f" stop-color="#000000"/>
   </g>
  </g>
  <g fill="#2f2f2f" stroke-miterlimit="10" stroke-width="0">
   <path d="m97.388 11.505-4.3827 16.356-16.356-4.3827-1.6435 6.1336 16.356 4.3827-4.3827 16.356 6.1336 1.6435 4.3827-16.356 16.356 4.3827 1.6435-6.1336-16.356-4.3827 4.3827-16.356z" stop-color="#000000"/>
   <path d="m224.39 329.01-4.3827 16.356-16.356-4.3827-1.6435 6.1336 16.356 4.3827-4.3827 16.356 6.1336 1.6435 4.3827-16.356 16.356 4.3827 1.6435-6.1336-16.356-4.3827 4.3827-16.356z" stop-color="#000000"/>
   <path d="m351.39 265.51-4.3827 16.356-16.356-4.3827-1.6435 6.1336 16.356 4.3827-4.3827 16.356 6.1336 1.6435 4.3827-16.356 16.356 4.3827 1.6435-6.1336-16.356-4.3827 4.3827-16.356z" stop-color="#000000"/>
   <path d="m224.39 202.01-4.3827 16.356-16.356-4.3827-1.6435 6.1336 16.356 4.3827-4.3827 16.356 6.1336 1.6435 4.3827-16.356 16.356 4.3827 1.6435-6.1336-16.356-4.3827 4.3827-16.356z" stop-color="#000000"/>
   <path d="m160.89 138.51-4.3827 16.356-16.356-4.3827-1.6435 6.1336 16.356 4.3827-4.3827 16.356 6.1336 1.6435 4.3827-16.356 16.356 4.3827 1.6435-6.1336-16.356-4.3827 4.3827-16.356z" stop-color="#000000"/>
   <path d="m414.89 11.505-4.3827 16.356-16.356-4.3827-1.6435 6.1336 16.356 4.3827-4.3827 16.356 6.1336 1.6435 4.3827-16.356 16.356 4.3827 1.6435-6.1336-16.356-4.3827 4.3827-16.356z" stop-color="#000000"/>
   <path d="m351.39 75.005-4.3827 16.356-16.356-4.3827-1.6435 6.1336 16.356 4.3827-4.3827 16.356 6.1336 1.6435 4.3827-16.356 16.356 4.3827 1.6435-6.1336-16.356-4.3827 4.3827-16.356z" stop-color="#000000"/>
   <path d="m478.39 265.51-4.3827 16.356-16.356-4.3827-1.6435 6.1336 16.356 4.3827-4.3827 16.356 6.1336 1.6435 4.3827-16.356 16.356 4.3827 1.6435-6.1336-16.356-4.3827 4.3827-16.356z" stop-color="#000000"/>
   <path d="m478.39 75.005-4.3827 16.356-16.356-4.3827-1.6435 6.1336 16.356 4.3827-4.3827 16.356 6.1336 1.6435 4.3827-16.356 16.356 4.3827 1.6435-6.1336-16.356-4.3827 4.3827-16.356z" stop-color="#000000"/>
   <path d="m39.055 76.248-8.4667 14.665-14.665-8.4667-3.175 5.4993 14.665 8.4667-8.4667 14.665 5.4993 3.175 8.4667-14.665 14.665 8.4667 3.175-5.4992-14.665-8.4667 8.4667-14.665z" stop-color="#000000"/>
   <path d="m293.05 203.25-8.4667 14.665-14.665-8.4667-3.175 5.4993 14.665 8.4667-8.4667 14.665 5.4993 3.175 8.4667-14.665 14.665 8.4667 3.175-5.4992-14.665-8.4667 8.4667-14.665z" stop-color="#000000"/>
   <path d="m229.55 76.248-8.4667 14.665-14.665-8.4667-3.175 5.4993 14.665 8.4667-8.4667 14.665 5.4993 3.175 8.4667-14.665 14.665 8.4667 3.175-5.4992-14.665-8.4667 8.4667-14.665z" stop-color="#000000"/>
   <path d="m293.05 330.25-8.4667 14.665-14.665-8.4667-3.175 5.4993 14.665 8.4667-8.4667 14.665 5.4993 3.175 8.4667-14.665 14.665 8.4667 3.175-5.4992-14.665-8.4667 8.4667-14.665z" stop-color="#000000"/>
   <path d="m356.55 139.75-8.4667 14.665-14.665-8.4667-3.175 5.4993 14.665 8.4667-8.4667 14.665 5.4993 3.175 8.4667-14.665 14.665 8.4667 3.175-5.4992-14.665-8.4667 8.4667-14.665z" stop-color="#000000"/>
   <path d="m420.05 203.25-8.4667 14.665-14.665-8.4667-3.175 5.4993 14.665 8.4667-8.4667 14.665 5.4993 3.175 8.4667-14.665 14.665 8.4667 3.175-5.4992-14.665-8.4667 8.4667-14.665z" stop-color="#000000"/>
   <path d="m102.55 266.75-8.4667 14.665-14.665-8.4667-3.175 5.4993 14.665 8.4667-8.4667 14.665 5.4993 3.175 8.4667-14.665 14.665 8.4667 3.175-5.4992-14.665-8.4667 8.4667-14.665z" stop-color="#000000"/>
   <path d="m166.05 203.25-8.4667 14.665-14.665-8.4667-3.175 5.4993 14.665 8.4667-8.4667 14.665 5.4993 3.175 8.4667-14.665 14.665 8.4667 3.175-5.4992-14.665-8.4667 8.4667-14.665z" stop-color="#000000"/>
   <path d="m102.55 139.75-8.4667 14.665-14.665-8.4667-3.175 5.4993 14.665 8.4667-8.4667 14.665 5.4993 3.175 8.4667-14.665 14.665 8.4667 3.175-5.4992-14.665-8.4667 8.4667-14.665z" stop-color="#000000"/>
   <path d="m39.055 203.25-8.4667 14.665-14.665-8.4667-3.175 5.4993 14.665 8.4667-8.4667 14.665 5.4993 3.175 8.4667-14.665 14.665 8.4667 3.175-5.4992-14.665-8.4667 8.4667-14.665z" stop-color="#000000"/>
   <path d="m166.05 330.25-8.4667 14.665-14.665-8.4667-3.175 5.4993 14.665 8.4667-8.4667 14.665 5.4993 3.175 8.4667-14.665 14.665 8.4667 3.175-5.4992-14.665-8.4667 8.4667-14.665z" stop-color="#000000"/>
   <path d="m107.22 78.786-11.974 11.974-11.974-11.974-4.4901 4.4901 11.974 11.974-11.974 11.974 4.4901 4.4901 11.974-11.974 11.974 11.974 4.4901-4.4901-11.974-11.974 11.974-11.974z" stop-color="#000000"/>
   <path d="m234.22 15.286-11.974 11.974-11.974-11.974-4.4901 4.4901 11.974 11.974-11.974 11.974 4.4901 4.4901 11.974-11.974 11.974 11.974 4.4901-4.4901-11.974-11.974 11.974-11.974z" stop-color="#000000"/>
   <path d="m297.72 269.29-11.974 11.974-11.974-11.974-4.4901 4.4901 11.974 11.974-11.974 11.974 4.4901 4.4901 11.974-11.974 11.974 11.974 4.4901-4.4901-11.974-11.974 11.974-11.974z" stop-color="#000000"/>
   <path d="m488.22 332.79-11.974 11.974-11.974-11.974-4.4901 4.4901 11.974 11.974-11.974 11.974 4.4901 4.4901 11.974-11.974 11.974 11.974 4.4901-4.4901-11.974-11.974 11.974-11.974z" stop-color="#000000"/>
   <path d="m488.22 142.29-11.974 11.974-11.974-11.974-4.4901 4.4901 11.974 11.974-11.974 11.974 4.4901 4.4901 11.974-11.974 11.974 11.974 4.4901-4.4901-11.974-11.974 11.974-11.974z" stop-color="#000000"/>
   <path d="m234.22 142.29-11.974 11.974-11.974-11.974-4.4901 4.4901 11.974 11.974-11.974 11.974 4.4901 4.4901 11.974-11.974 11.974 11.974 4.4901-4.4901-11.974-11.974 11.974-11.974z" stop-color="#000000"/>
   <path d="m174.58 18.946-14.665 8.4667-8.4667-14.665-5.4993 3.175 8.4667 14.665-14.665 8.4667 3.175 5.4993 14.665-8.4667 8.4667 14.665 5.4992-3.175-8.4667-14.665 14.665-8.4667z" stop-color="#000000"/>
   <path d="m111.08 209.45-14.665 8.4667-8.4667-14.665-5.4993 3.175 8.4667 14.665-14.665 8.4667 3.175 5.4993 14.665-8.4667 8.4667 14.665 5.4992-3.175-8.4667-14.665 14.665-8.4667z" stop-color="#000000"/>
   <path d="m365.08 336.45-14.665 8.4667-8.4667-14.665-5.4993 3.175 8.4667 14.665-14.665 8.4667 3.175 5.4993 14.665-8.4667 8.4667 14.665 5.4992-3.175-8.4667-14.665 14.665-8.4667z" stop-color="#000000"/>
   <path d="m47.577 336.45-14.665 8.4667-8.4667-14.665-5.4993 3.175 8.4667 14.665-14.665 8.4667 3.175 5.4993 14.665-8.4667 8.4667 14.665 5.4992-3.175-8.4667-14.665 14.665-8.4667z" stop-color="#000000"/>
   <path d="m492.08 18.946-14.665 8.4667-8.4667-14.665-5.4993 3.175 8.4667 14.665-14.665 8.4667 3.175 5.4993 14.665-8.4667 8.4667 14.665 5.4992-3.175-8.4667-14.665 14.665-8.4667z" stop-color="#000000"/>
   <path d="m174.58 272.95-14.665 8.4667-8.4667-14.665-5.4993 3.175 8.4667 14.665-14.665 8.4667 3.175 5.4993 14.665-8.4667 8.4667 14.665 5.4992-3.175-8.4667-14.665 14.665-8.4667z" stop-color="#000000"/>
   <path d="m428.58 272.95-14.665 8.4667-8.4667-14.665-5.4993 3.175 8.4667 14.665-14.665 8.4667 3.175 5.4993 14.665-8.4667 8.4667 14.665 5.4992-3.175-8.4667-14.665 14.665-8.4667z" stop-color="#000000"/>
   <path d="m428.58 82.446-14.665 8.4667-8.4667-14.665-5.4993 3.175 8.4667 14.665-14.665 8.4667 3.175 5.4993 14.665-8.4667 8.4667 14.665 5.4992-3.175-8.4667-14.665 14.665-8.4667z" stop-color="#000000"/>
   <path d="m301.58 82.446-14.665 8.4667-8.4667-14.665-5.4993 3.175 8.4667 14.665-14.665 8.4667 3.175 5.4993 14.665-8.4667 8.4667 14.665 5.4992-3.175-8.4667-14.665 14.665-8.4667z" stop-color="#000000"/>
   <path d="m177.35 86.979-16.356 4.3827-4.3827-16.356-6.1336 1.6435 4.3827 16.356-16.356 4.3827 1.6435 6.1336 16.356-4.3827 4.3827 16.356 6.1336-1.6435-4.3827-16.356 16.356-4.3827z" stop-color="#000000"/>
   <path d="m240.85 277.48-16.356 4.3827-4.3827-16.356-6.1336 1.6435 4.3827 16.356-16.356 4.3827 1.6435 6.1336 16.356-4.3827 4.3827 16.356 6.1336-1.6435-4.3827-16.356 16.356-4.3827z" stop-color="#000000"/>
   <path d="m431.35 150.48-16.356 4.3827-4.3827-16.356-6.1336 1.6435 4.3827 16.356-16.356 4.3827 1.6435 6.1336 16.356-4.3827 4.3827 16.356 6.1336-1.6435-4.3827-16.356 16.356-4.3827z" stop-color="#000000"/>
   <path d="m494.85 213.98-16.356 4.3827-4.3827-16.356-6.1336 1.6435 4.3827 16.356-16.356 4.3827 1.6435 6.1336 16.356-4.3827 4.3827 16.356 6.1336-1.6435-4.3827-16.356 16.356-4.3827z" stop-color="#000000"/>
   <path d="m431.35 340.98-16.356 4.3827-4.3827-16.356-6.1336 1.6435 4.3827 16.356-16.356 4.3827 1.6435 6.1336 16.356-4.3827 4.3827 16.356 6.1336-1.6435-4.3827-16.356 16.356-4.3827z" stop-color="#000000"/>
   <path d="m304.35 150.48-16.356 4.3827-4.3827-16.356-6.1336 1.6435 4.3827 16.356-16.356 4.3827 1.6435 6.1336 16.356-4.3827 4.3827 16.356 6.1336-1.6435-4.3827-16.356 16.356-4.3827z" stop-color="#000000"/>
   <path d="m50.351 23.479-16.356 4.3827-4.3827-16.356-6.1336 1.6435 4.3827 16.356-16.356 4.3827 1.6435 6.1336 16.356-4.3827 4.3827 16.356 6.1336-1.6435-4.3827-16.356 16.356-4.3827z" stop-color="#000000"/>
   <path d="m361.22 205.79-11.974 11.974-11.974-11.974-4.4901 4.4901 11.974 11.974-11.974 11.974 4.4901 4.4901 11.974-11.974 11.974 11.974 4.4901-4.4901-11.974-11.974 11.974-11.974z" stop-color="#000000"/>
   <path d="m361.22 15.286-11.974 11.974-11.974-11.974-4.4901 4.4901 11.974 11.974-11.974 11.974 4.4901 4.4901 11.974-11.974 11.974 11.974 4.4901-4.4901-11.974-11.974 11.974-11.974z" stop-color="#000000"/>
   <path d="m43.724 269.29-11.974 11.974-11.974-11.974-4.4901 4.4901 11.974 11.974-11.974 11.974 4.4901 4.4901 11.974-11.974 11.974 11.974 4.4901-4.4901-11.974-11.974 11.974-11.974z" stop-color="#000000"/>
   <path d="m304.35 23.479-16.356 4.3827-4.3827-16.356-6.1336 1.6435 4.3827 16.356-16.356 4.3827 1.6435 6.1336 16.356-4.3827 4.3827 16.356 6.1336-1.6435-4.3827-16.356 16.356-4.3827z" stop-color="#000000"/>
   <path d="m50.351 150.48-16.356 4.3827-4.3827-16.356-6.1336 1.6435 4.3827 16.356-16.356 4.3827 1.6435 6.1336 16.356-4.3827 4.3827 16.356 6.1336-1.6435-4.3827-16.356 16.356-4.3827z" stop-color="#000000"/>
   <path d="m113.85 340.98-16.356 4.3827-4.3827-16.356-6.1336 1.6435 4.3827 16.356-16.356 4.3827 1.6435 6.1336 16.356-4.3827 4.3827 16.356 6.1336-1.6435-4.3827-16.356 16.356-4.3827z" stop-color="#000000"/>
  </g>
 </g>
</svg>
